<svg xmlns="http://www.w3.org/2000/svg" xmlns:xlink="http://www.w3.org/1999/xlink" version="1.1" width="842.85685" height="50.8691" viewBox="0,0,842.85685,50.8691"><defs><linearGradient x1="139.55997" y1="155" x2="139.55997" y2="205.00001" gradientUnits="userSpaceOnUse" id="color-1"><stop offset="0" stop-color="#ffffff" stop-opacity="0.3"/><stop offset="1" stop-color="#ffffff" stop-opacity="0.05"/></linearGradient><linearGradient x1="397.65566" y1="180" x2="430.32767" y2="180" gradientUnits="userSpaceOnUse" id="color-2"><stop offset="0" stop-color="#ffffff" stop-opacity="0.04314"/><stop offset="1" stop-color="#ffffff" stop-opacity="0.07451"/></linearGradient><linearGradient x1="-16.53556" y1="155" x2="-16.53556" y2="205" gradientUnits="userSpaceOnUse" id="color-3"><stop offset="0" stop-color="#ffffff" stop-opacity="0.3"/><stop offset="1" stop-color="#ffffff" stop-opacity="0.05"/></linearGradient><linearGradient x1="-83.45079" y1="180" x2="-50.77878" y2="180" gradientUnits="userSpaceOnUse" id="color-4"><stop offset="0" stop-color="#ffffff" stop-opacity="0.21569"/><stop offset="1" stop-color="#ffffff" stop-opacity="0.1451"/></linearGradient><linearGradient x1="299.92759" y1="180" x2="332.5996" y2="180" gradientUnits="userSpaceOnUse" id="color-5"><stop offset="0" stop-color="#ffffff" stop-opacity="0.21569"/><stop offset="1" stop-color="#ffffff" stop-opacity="0.1451"/></linearGradient><linearGradient x1="473.44943" y1="155" x2="473.44943" y2="205" gradientUnits="userSpaceOnUse" id="color-6"><stop offset="0" stop-color="#ffffff" stop-opacity="0.3"/><stop offset="1" stop-color="#ffffff" stop-opacity="0.05"/></linearGradient><linearGradient x1="-181.42843" y1="179.99999" x2="-148.75642" y2="179.99999" gradientUnits="userSpaceOnUse" id="color-7"><stop offset="0" stop-color="#ffffff" stop-opacity="0.04314"/><stop offset="1" stop-color="#ffffff" stop-opacity="0.07451"/></linearGradient><linearGradient x1="628.75642" y1="180" x2="661.42843" y2="180" gradientUnits="userSpaceOnUse" id="color-8"><stop offset="0" stop-color="#ffffff" stop-opacity="0.21569"/><stop offset="1" stop-color="#ffffff" stop-opacity="0.1451"/></linearGradient></defs><g transform="translate(181.42843,-154.56545)"><g stroke="none" stroke-miterlimit="10"><path d="M155.20745,155h35l-15.64748,50h-35z" fill="url(#color-1)" stroke-width="1"/><path d="M244.41528,205.43455l20.26492,-50.86909h12.40709l-20.26492,50.45552z" fill-opacity="0.1451" fill="#ffffff" stroke-width="0"/><path d="M397.65566,205.43454l20.26492,-50.86909h19.20028l-20.26492,50.45552z" fill="url(#color-2)" stroke-width="0"/><path d="M10.75738,155h23.35454l-15.64748,50h-23.35454z" fill="url(#color-3)" stroke-width="1"/><path d="M-83.45079,205.43454l20.26492,-50.86909h12.40709l-20.26492,50.45552z" fill="url(#color-4)" stroke-width="0"/><path d="M299.92759,205.43454l20.26492,-50.86909h12.40709l-20.26492,50.45552z" fill="url(#color-5)" stroke-width="0"/><path d="M500.74237,155h15.84703l-15.64748,50h-15.84703z" fill="url(#color-6)" stroke-width="1"/><path d="M-181.42843,205.43454l20.26492,-50.86909h19.20027l-20.26492,50.45552z" fill="url(#color-7)" stroke-width="0"/><path d="M628.75642,205.43455l20.26492,-50.86909h12.40709l-20.26492,50.45552z" fill="url(#color-8)" stroke-width="0"/></g></g></svg>
