<svg xmlns="http://www.w3.org/2000/svg" xmlns:xlink="http://www.w3.org/1999/xlink" version="1.1" width="603.64708" height="84.14178" viewBox="0,0,603.64708,84.14178"><defs><linearGradient x1="372.67731" y1="180.75076" x2="405.34932" y2="180.75076" gradientUnits="userSpaceOnUse" id="color-1"><stop offset="0" stop-color="#ffffff" stop-opacity="0.04314"/><stop offset="1" stop-color="#ffffff" stop-opacity="0.07451"/></linearGradient><linearGradient x1="460.25989" y1="180.75076" x2="492.9319" y2="180.75076" gradientUnits="userSpaceOnUse" id="color-2"><stop offset="0" stop-color="#ffffff" stop-opacity="0.07451"/><stop offset="1" stop-color="#ffffff" stop-opacity="0.04314"/></linearGradient><linearGradient x1="242.54217" y1="179.24925" x2="275.21418" y2="179.24925" gradientUnits="userSpaceOnUse" id="color-3"><stop offset="0" stop-color="#ffffff" stop-opacity="0.07451"/><stop offset="1" stop-color="#ffffff" stop-opacity="0.11373"/></linearGradient><linearGradient x1="109.89953" y1="179.24925" x2="142.57154" y2="179.24925" gradientUnits="userSpaceOnUse" id="color-4"><stop offset="0" stop-color="#ffffff" stop-opacity="0.07451"/><stop offset="1" stop-color="#ffffff" stop-opacity="0.04314"/></linearGradient><linearGradient x1="-61.76714" y1="179.24925" x2="-29.09513" y2="179.24925" gradientUnits="userSpaceOnUse" id="color-5"><stop offset="0" stop-color="#ffffff" stop-opacity="0.07451"/><stop offset="1" stop-color="#ffffff" stop-opacity="0.11373"/></linearGradient></defs><g transform="translate(103.92199,-153.8147)"><g stroke="none" stroke-miterlimit="10"><path d="M372.67731,206.1853l20.26492,-50.86909h19.20028l-20.26492,50.45552z" fill="url(#color-1)" stroke-width="0"/><path d="M460.25989,206.1853l20.26492,-50.86909h19.20028l-20.26492,50.45552z" fill="url(#color-2)" stroke-width="0"/><path d="M239.53917,204.68379l20.26492,-50.86909h22.20328l-20.26492,50.45552z" fill="url(#color-3)" stroke-width="0"/><path d="M109.89953,204.68379l20.26492,-50.86909h19.20028l-20.26492,50.45552z" fill="url(#color-4)" stroke-width="0"/><path d="M-64.77014,204.68379l20.26492,-50.86909h22.20328l-20.26492,50.45552z" fill="url(#color-5)" stroke-width="0"/><path d="M73.27076,235.45649c0,-1.38071 1.11929,-2.5 2.5,-2.5c1.38071,0 2.5,1.11929 2.5,2.5c0,1.38071 -1.11929,2.5 -2.5,2.5c-1.38071,0 -2.5,-1.11929 -2.5,-2.5z" fill="#000000" stroke-width="0.5"/><path d="M-84.03601,187.30299c-2.64466,2.64466 -5.28932,0 -5.28932,0l-1.27429,-1.54572c-6.34013,-3.23844 -9.66578,-6.56409 -12.90421,-12.90421c0,0 -1.67263,-3.34526 1.67263,-5.01789c3.34526,-1.67263 5.01789,1.67263 5.01789,1.67263c2.41455,4.96384 4.59511,7.1444 9.55895,9.55895l3.21835,2.94692c0,0 2.64466,2.64466 0,5.28932z" fill="none" stroke-width="0.5"/></g></g></svg>
